<?xml version="1.0" standalone="no"?>
<!DOCTYPE svg PUBLIC "-//W3C//DTD SVG 20010904//EN"
 "http://www.w3.org/TR/2001/REC-SVG-20010904/DTD/svg10.dtd">
<svg version="1.0" xmlns="http://www.w3.org/2000/svg"
 width="3072.000000pt" height="2048.000000pt" viewBox="0 0 3072.000000 2048.000000"
 preserveAspectRatio="xMidYMid meet">
<metadata>
Created by potrace 1.16, written by Peter Selinger 2001-2019
</metadata>
<g transform="translate(0.000000,2048.000000) scale(0.100000,-0.100000)"
fill="#000000" stroke="none">
<path d="M0 19193 l1 -1288 45 -35 c133 -104 562 -575 810 -890 169 -214 420
-564 540 -753 235 -370 330 -539 517 -912 264 -529 464 -1046 641 -1662 56
-198 143 -534 171 -663 62 -287 123 -630 175 -975 33 -220 69 -447 80 -505 40
-209 20 -187 -55 60 -107 357 -190 575 -365 960 -530 1170 -1184 2208 -2004
3180 -178 211 -525 590 -547 598 -5 2 -9 -1477 -9 -3750 l0 -3753 107 -125
c207 -242 478 -495 729 -682 181 -134 409 -270 680 -406 55 -28 105 -56 111
-64 6 -7 30 -60 53 -118 52 -130 223 -479 323 -660 95 -173 284 -479 455 -740
206 -312 423 -599 682 -899 190 -220 186 -215 160 -219 -66 -10 -836 437
-1376 799 -624 417 -1339 1002 -1842 1506 -40 40 -74 73 -77 73 -3 0 -5 -346
-5 -769 l0 -770 123 -40 c247 -80 762 -232 1237 -364 145 -41 584 -155 985
-257 154 -40 354 -92 445 -117 91 -24 258 -69 372 -98 136 -35 238 -68 295
-95 101 -47 177 -90 170 -96 -2 -2 -58 -13 -123 -24 -65 -11 -272 -48 -459
-84 -924 -176 -1990 -299 -2862 -332 l-183 -6 0 -1994 0 -1993 132 45 c596
204 1564 643 2413 1094 818 434 1929 1106 2287 1383 l77 60 153 -61 c317 -125
851 -287 1173 -356 86 -19 159 -37 163 -40 7 -8 -24 -38 -328 -321 -495 -460
-1101 -1056 -1391 -1365 -352 -376 -579 -633 -579 -654 0 -15 105 -16 1128
-16 l1128 0 11 37 c20 70 140 396 228 623 148 380 381 912 587 1340 73 151 97
188 116 176 5 -3 97 -13 203 -23 298 -26 951 -24 1394 5 187 13 373 25 414 27
83 5 94 10 60 24 -516 212 -1137 532 -1708 880 -926 564 -1800 1206 -2636
1936 -417 363 -533 473 -1010 949 -450 448 -636 650 -1019 1101 -525 618 -895
1097 -1157 1495 -298 452 -334 510 -320 510 6 0 48 -33 93 -73 226 -200 509
-408 1128 -830 480 -328 724 -478 1205 -744 393 -217 606 -328 1105 -577 580
-289 683 -337 1174 -551 1124 -487 2330 -871 3333 -1060 134 -25 249 -48 258
-51 8 -4 15 -3 15 1 0 4 -48 64 -108 133 -393 463 -758 1005 -1028 1527 -54
105 -102 193 -107 196 -5 4 -32 9 -61 13 -170 20 -860 229 -1191 361 -1168
464 -2098 1282 -2688 2360 -331 605 -537 1300 -622 2095 -48 452 -48 1101 0
1690 29 348 116 1013 136 1035 13 13 11 -77 -6 -265 -76 -829 1 -1794 216
-2715 197 -841 588 -1695 1062 -2315 320 -418 722 -813 1162 -1141 430 -322
941 -618 1445 -841 204 -90 482 -199 489 -193 3 4 -5 25 -17 48 -226 408 -338
637 -497 1017 -442 1060 -650 2126 -606 3112 31 712 135 1272 346 1873 126
362 211 561 346 811 98 181 93 162 -26 -116 -302 -701 -516 -1577 -575 -2345
-16 -210 -14 -737 4 -955 58 -693 238 -1324 572 -2000 109 -223 155 -304 289
-520 216 -347 381 -569 664 -900 888 -1035 2346 -1975 3876 -2499 313 -108
784 -240 1089 -306 43 -9 74 -20 70 -24 -9 -8 -85 -17 -474 -56 -493 -49 -823
-65 -1355 -65 -869 0 -1417 47 -2168 185 -565 104 -1174 276 -1788 503 -322
119 -934 379 -1299 552 -118 56 -252 119 -296 140 -291 137 -796 397 -1074
553 -69 38 -199 111 -290 162 -91 51 -228 130 -305 177 -77 47 -275 165 -440
263 -378 225 -1066 669 -1225 790 -30 23 -71 50 -90 60 -33 17 -34 17 -20 1 8
-10 55 -52 105 -94 49 -42 92 -78 95 -81 3 -4 61 -53 130 -111 69 -58 161
-136 205 -173 44 -38 133 -112 198 -165 66 -54 163 -132 216 -176 193 -158
348 -279 639 -502 119 -91 549 -409 756 -558 676 -489 1213 -843 2121 -1398
871 -532 1749 -1000 2390 -1273 502 -214 921 -359 1430 -495 127 -34 234 -66
239 -70 5 -5 -9 -34 -31 -67 -48 -70 -84 -126 -190 -298 -317 -513 -661 -1244
-807 -1715 -51 -167 -106 -371 -106 -397 l0 -23 550 0 c330 0 550 4 550 9 0 5
44 39 98 74 106 72 170 115 592 407 157 108 330 227 385 265 261 179 857 598
1335 938 269 192 743 533 997 718 55 41 190 139 300 219 109 79 286 209 393
289 107 80 276 203 375 273 409 291 846 610 1275 932 343 258 410 308 470 357
25 19 104 81 175 138 556 440 888 733 1310 1156 239 238 425 442 596 650 110
133 363 475 419 565 330 527 601 1165 675 1591 8 48 18 95 21 105 4 11 4 16
-1 12 -4 -4 -32 -84 -62 -177 -62 -199 -116 -328 -224 -541 -145 -285 -179
-346 -295 -525 -70 -109 -257 -366 -297 -407 -7 -7 -48 -56 -92 -108 -238
-282 -695 -748 -1095 -1115 -35 -33 -96 -90 -135 -126 -95 -89 -520 -460 -645
-564 -20 -16 -143 -121 -272 -232 -326 -281 -823 -683 -1298 -1053 -102 -79
-259 -203 -350 -275 -144 -115 -391 -305 -502 -388 -46 -34 -59 -35 -27 -1 25
27 208 186 332 288 40 32 99 82 132 110 75 64 230 191 400 326 118 94 327 268
511 425 257 219 348 299 518 449 219 194 361 322 461 417 39 36 183 172 320
301 762 718 1361 1427 1747 2068 285 474 460 906 547 1350 99 506 58 884 -141
1311 -274 586 -979 1145 -1776 1408 -796 263 -1682 299 -2462 99 -290 -74
-484 -149 -800 -309 -439 -222 -993 -651 -1225 -949 -33 -41 -92 -114 -132
-162 -40 -47 -73 -90 -73 -93 0 -4 28 19 63 51 182 171 557 391 952 559 442
189 765 291 1150 364 512 97 1064 109 1525 31 524 -87 1001 -297 1410 -618
125 -98 359 -334 441 -444 269 -362 419 -800 419 -1225 0 -174 -18 -284 -91
-551 -23 -84 -19 -32 6 84 76 347 73 604 -9 907 -61 224 -171 439 -330 647
-252 330 -665 641 -1064 801 -359 145 -734 230 -1142 260 -183 13 -686 7 -860
-11 -366 -37 -709 -109 -1015 -213 -420 -142 -741 -312 -1145 -608 -102 -74
-212 -151 -245 -171 -120 -72 -273 -124 -340 -116 -28 3 -30 6 -27 38 7 90
187 374 386 610 490 580 998 976 1716 1339 250 127 552 250 875 359 966 325
2159 417 3319 256 525 -73 897 -172 1441 -384 442 -173 687 -306 949 -514 131
-105 137 -109 96 -58 -44 55 -343 331 -506 468 -177 147 -495 393 -624 480
-250 170 -770 456 -1093 601 -520 234 -1057 397 -1637 497 -420 72 -921 106
-1312 87 -1104 -54 -2092 -349 -2907 -869 -355 -227 -608 -428 -887 -706 -176
-177 -274 -291 -402 -465 -225 -308 -352 -591 -388 -861 -38 -290 18 -516 165
-673 213 -226 454 -316 820 -305 77 2 137 0 133 -3 -11 -11 -251 -39 -332 -39
-192 0 -349 34 -505 109 -116 56 -200 117 -279 202 -74 79 -109 142 -147 259
-39 123 -49 310 -26 465 46 295 236 684 518 1060 377 503 870 1005 1414 1440
873 697 1864 1316 2780 1737 261 120 371 168 384 168 8 0 42 -17 75 -39 34
-21 214 -136 401 -254 187 -119 424 -271 527 -339 1136 -746 1847 -1229 2282
-1552 297 -221 371 -279 556 -441 63 -55 162 -141 219 -190 225 -194 643 -618
812 -825 30 -36 107 -125 172 -197 112 -123 207 -240 207 -255 0 -3 -53 33
-117 81 -445 333 -877 543 -1423 694 -232 64 -696 164 -708 153 -7 -8 -12 -5
118 -76 309 -170 477 -295 711 -529 97 -97 202 -211 234 -255 282 -386 421
-736 481 -1206 25 -199 22 -522 -5 -705 -26 -169 -62 -327 -76 -326 -5 1 -27
33 -48 73 -21 39 -63 107 -94 152 -316 452 -616 709 -1118 956 -279 137 -283
138 -222 70 69 -77 128 -170 215 -341 308 -604 353 -1280 137 -2035 -178 -622
-511 -1230 -1124 -2054 -240 -322 -589 -761 -1081 -1360 -30 -36 -101 -123
-156 -191 -56 -69 -119 -145 -140 -170 -22 -25 -75 -90 -119 -145 -139 -171
-591 -715 -656 -789 -15 -16 -66 -78 -115 -136 -49 -58 -159 -188 -244 -288
-85 -101 -224 -265 -309 -364 -84 -100 -219 -260 -300 -355 -211 -250 -274
-324 -386 -458 -55 -65 -201 -236 -325 -379 -124 -143 -247 -287 -275 -320
-27 -33 -95 -112 -150 -176 -55 -63 -179 -207 -275 -320 -96 -112 -205 -236
-242 -275 -38 -39 -68 -78 -68 -87 0 -16 82 -17 1155 -17 l1155 0 78 82 c142
150 445 479 531 577 46 53 125 141 176 196 99 109 114 126 261 291 55 61 151
169 214 240 63 71 130 147 149 169 19 22 62 72 96 110 344 386 988 1143 1353
1590 883 1080 1456 1838 1940 2565 214 321 322 496 522 845 367 640 623 1299
720 1845 66 379 82 670 51 959 -12 107 -19 196 -17 198 10 11 72 -194 115
-382 64 -280 93 -456 116 -708 65 -731 -7 -1425 -230 -2217 -152 -541 -337
-1006 -649 -1630 -285 -571 -741 -1327 -1175 -1950 -177 -255 -411 -583 -481
-675 -46 -60 -145 -191 -219 -290 -195 -260 -268 -351 -421 -525 -75 -85 -140
-162 -144 -170 -17 -30 292 279 504 505 113 120 299 321 370 400 35 39 123
133 195 210 321 340 691 764 986 1130 582 721 1116 1525 1472 2215 145 283
213 432 328 718 340 851 505 1612 539 2495 29 751 -74 1551 -300 2332 -339
1170 -994 2321 -1913 3360 -161 182 -509 535 -579 588 -174 130 -741 403
-1373 659 -494 200 -743 293 -1615 599 -988 348 -1470 525 -1980 729 -1195
478 -2161 1015 -2975 1654 -117 91 -443 365 -509 427 -18 17 -18 19 30 86 27
37 62 88 78 113 16 25 70 101 121 170 290 396 382 521 493 670 68 91 146 194
174 230 l51 65 -194 3 c-106 1 -195 -1 -198 -6 -3 -4 -55 -44 -114 -88 -103
-75 -210 -156 -392 -297 -390 -302 -1194 -1090 -1675 -1642 -57 -66 -123 -140
-146 -165 -23 -25 -102 -119 -176 -210 -691 -848 -1299 -1726 -1861 -2686
-368 -629 -751 -1426 -919 -1914 -76 -221 -191 -584 -217 -689 -203 -800 -241
-1509 -120 -2231 60 -354 125 -569 245 -813 61 -123 69 -147 45 -133 -28 18
-250 385 -333 551 -125 248 -281 647 -357 912 -140 485 -196 990 -173 1549 29
704 147 1218 430 1889 125 296 257 546 506 956 122 202 130 215 309 484 127
190 176 260 346 495 778 1073 1804 2117 2821 2871 571 424 843 611 1295 892
149 93 302 192 340 220 l70 52 -1440 3 c-830 1 -1441 -2 -1443 -7 -3 -9 -133
-185 -283 -381 -496 -649 -1375 -1914 -1729 -2485 -250 -404 -453 -741 -605
-1005 -201 -349 -528 -958 -623 -1160 -22 -47 -81 -173 -132 -280 -501 -1057
-835 -2158 -960 -3160 -40 -321 -54 -560 -54 -965 -1 -407 5 -507 50 -865 52
-413 108 -686 188 -913 25 -70 42 -127 38 -127 -21 1 -213 322 -331 555 -155
303 -208 423 -313 705 -264 709 -385 1500 -349 2280 33 709 128 1301 322 2011
249 913 578 1748 1061 2689 202 394 505 946 615 1118 18 29 33 54 33 56 0 3
23 42 51 88 29 46 89 144 134 218 276 455 660 1041 955 1455 58 83 110 156
114 163 6 9 -207 12 -1051 12 l-1058 -1 -167 -252 c-346 -524 -645 -1026 -893
-1502 -43 -82 -81 -154 -85 -160 -17 -22 -253 -502 -342 -695 -190 -410 -402
-970 -602 -1592 -37 -115 -71 -208 -76 -208 -6 0 -10 49 -10 118 0 374 -77
767 -255 1297 -200 600 -620 1347 -1069 1905 -278 346 -600 676 -976 1000 -41
36 -79 71 -83 77 -6 10 -296 13 -1397 13 l-1390 0 0 -1287z m14885 -3683 c-10
-11 -54 -48 -98 -83 -562 -438 -757 -607 -1102 -952 -342 -342 -615 -676 -882
-1075 -220 -330 -302 -471 -454 -785 -342 -705 -444 -1385 -280 -1874 102
-304 275 -510 619 -735 57 -38 101 -70 99 -72 -8 -9 -251 107 -353 168 -212
127 -439 316 -559 465 -322 402 -491 796 -577 1343 -20 129 -22 182 -23 485 0
304 3 357 23 495 59 398 148 692 301 995 153 302 368 603 662 930 134 149 339
354 339 340 0 -16 -51 -94 -126 -195 -328 -441 -531 -870 -650 -1380 -34 -147
-41 -200 -25 -200 5 0 17 12 27 28 74 115 347 391 654 664 459 406 851 685
1362 966 327 180 777 393 1028 485 29 10 33 7 15 -13z m-4361 -1931 c-49 -86
-169 -336 -204 -425 -120 -302 -200 -635 -231 -967 -15 -161 -7 -493 16 -637
59 -377 212 -724 441 -1001 81 -97 173 -184 304 -285 96 -74 162 -134 119
-108 -8 5 -42 30 -75 56 -32 26 -105 81 -160 122 -290 215 -539 606 -641 1006
-97 382 -78 922 48 1390 89 329 223 635 387 883 39 58 36 37 -4 -34z m690 -51
c-4 -7 -24 -38 -44 -68 -211 -316 -398 -773 -480 -1174 -54 -265 -69 -636 -35
-861 64 -430 208 -815 408 -1095 150 -211 453 -524 639 -663 524 -390 992
-576 1663 -661 489 -63 1164 -63 1699 -1 76 9 140 14 142 12 14 -14 -434 -70
-746 -94 -315 -24 -928 -24 -1125 0 -557 69 -968 218 -1415 512 -225 148 -390
286 -604 506 -221 227 -345 381 -443 550 -103 178 -224 551 -280 864 -25 141
-25 551 0 715 80 527 285 1026 580 1418 36 48 58 69 41 40z m-1645 -1748 c67
-314 112 -465 233 -765 130 -324 285 -607 490 -891 321 -446 756 -823 1214
-1052 215 -108 374 -169 662 -256 254 -77 485 -117 792 -137 312 -20 896 13
1500 86 206 25 391 48 410 52 69 11 15 -17 -120 -63 -440 -150 -1076 -244
-1650 -244 -196 0 -420 14 -493 31 -88 21 -73 -10 33 -64 36 -18 116 -62 179
-96 361 -201 857 -375 1281 -449 711 -125 1417 -56 2065 200 146 58 397 186
506 258 331 220 585 512 672 771 84 249 49 523 -89 705 -41 54 -172 148 -278
199 -113 55 -279 110 -400 132 -118 22 -590 25 -706 5 -292 -52 -733 -217
-1015 -381 -367 -213 -647 -313 -1055 -378 -164 -25 -587 -25 -750 1 -362 57
-694 185 -1020 394 -95 61 -313 228 -387 296 -26 25 -51 46 -55 46 -21 1 -323
345 -396 452 -57 83 -34 63 49 -43 200 -254 538 -543 779 -664 255 -128 512
-202 880 -251 167 -23 589 -26 750 -6 316 40 607 111 865 214 55 22 276 129
490 237 425 216 564 278 785 351 541 180 1136 200 1714 59 66 -16 122 -32 125
-35 3 -4 -5 -4 -19 -1 -67 16 -307 57 -405 69 -165 20 -692 17 -860 -6 -504
-66 -863 -215 -1312 -544 -57 -41 -103 -76 -103 -78 0 -4 3 -2 110 41 168 68
500 180 635 214 231 57 461 74 819 61 342 -14 517 -43 757 -126 301 -104 493
-241 652 -466 67 -94 146 -267 135 -298 -2 -6 -22 15 -44 47 -59 83 -168 202
-244 265 -57 48 -296 198 -315 198 -4 0 11 -23 34 -51 75 -95 116 -247 107
-399 -18 -300 -157 -572 -434 -853 -361 -366 -788 -607 -1465 -826 -807 -261
-2069 -417 -3007 -372 -265 13 -442 33 -700 80 -392 70 -681 164 -938 303
l-77 41 30 -32 c17 -18 107 -90 200 -161 574 -430 1226 -797 1860 -1045 677
-265 1275 -399 1845 -412 657 -15 1224 112 2030 457 213 91 450 218 685 368
44 28 81 49 84 47 11 -12 -245 -278 -569 -591 -234 -226 -537 -495 -855 -759
-247 -206 -963 -781 -1025 -823 -46 -32 -49 -33 -77 -19 -15 8 -98 42 -183 75
-941 364 -1981 929 -3162 1718 -892 597 -1368 987 -1854 1524 -113 124 -307
383 -411 545 -226 356 -412 852 -480 1280 -22 141 -25 634 -5 795 24 184 62
401 93 524 31 122 99 340 104 334 2 -2 -3 -43 -10 -93 -76 -499 -6 -1014 191
-1408 191 -382 441 -600 827 -722 l147 -47 0 -286 c0 -426 31 -967 58 -994 6
-6 94 -12 213 -15 196 -5 607 17 874 47 306 34 474 55 663 81 117 16 242 29
278 29 73 0 78 14 8 24 -52 7 -376 112 -502 162 -108 44 -379 180 -502 251
-329 193 -576 390 -880 700 -405 412 -676 790 -843 1174 -184 422 -300 984
-280 1357 3 62 10 109 14 105 4 -4 26 -96 48 -203z m8996 -1803 c210 -174 382
-397 525 -682 104 -204 149 -352 180 -578 13 -102 13 -318 -1 -432 -68 -561
-467 -1164 -1079 -1632 -118 -90 -248 -178 -254 -172 -2 2 74 84 169 181 505
518 777 979 880 1493 93 467 39 954 -150 1336 -102 207 -191 336 -354 518 -62
69 -70 81 -42 65 18 -10 75 -54 126 -97z m-3810 -607 c-45 -20 -278 -91 -390
-119 -257 -64 -563 -101 -820 -100 -99 1 -193 5 -210 9 -16 4 65 7 180 8 221
1 368 14 628 58 128 22 420 94 557 138 50 16 87 20 55 6z"/>
<path d="M5556 20073 c-8 -567 -23 -995 -46 -1358 -20 -316 -44 -579 -56 -608
-3 -10 -2 -17 4 -17 15 0 47 105 87 290 132 601 284 1114 556 1874 44 121 79
221 79 223 0 2 -139 3 -309 3 l-309 0 -6 -407z"/>
<path d="M16421 20388 c179 -201 840 -830 1304 -1243 320 -285 718 -626 974
-835 31 -25 119 -98 196 -161 77 -63 235 -191 350 -284 116 -93 228 -183 250
-201 64 -52 438 -348 605 -479 248 -195 490 -389 725 -580 121 -98 255 -207
297 -242 43 -34 164 -134 270 -222 284 -235 323 -267 671 -548 507 -411 561
-455 630 -515 36 -32 68 -58 71 -58 13 0 -16 41 -71 103 -125 140 -291 374
-679 957 -656 987 -1026 1597 -1389 2295 -43 83 -112 211 -153 285 -163 295
-603 1203 -776 1605 l-91 210 -1634 3 -1633 2 83 -92z"/>
<path d="M20270 20472 c0 -10 106 -92 625 -480 277 -208 1283 -986 1429 -1105
l29 -23 -13 -286 c-27 -583 6 -1215 90 -1765 61 -401 167 -794 289 -1078 173
-401 369 -661 1041 -1385 805 -865 1355 -1588 1832 -2405 608 -1042 938 -2028
1040 -3110 18 -188 18 -892 0 -1080 -48 -512 -122 -878 -268 -1327 -111 -342
-244 -645 -429 -983 -253 -460 -589 -926 -974 -1350 -333 -368 -904 -912
-1167 -1114 -52 -40 -94 -80 -98 -93 -9 -35 -7 -296 4 -538 35 -759 127 -1457
281 -2128 22 -97 43 -187 45 -200 l4 -22 3345 0 3345 0 0 645 c0 538 -2 645
-14 645 -18 0 -268 174 -370 257 -373 306 -783 745 -1107 1183 -81 109 -410
582 -416 597 -6 17 -7 17 65 -6 172 -55 466 -105 706 -121 294 -18 689 20
1044 101 l92 21 0 1473 c0 809 -3 1474 -6 1477 -3 3 -65 -21 -137 -54 -798
-364 -1132 -483 -1902 -677 -300 -75 -540 -131 -566 -131 -11 0 -21 6 -23 13
-2 6 -25 100 -51 207 -89 368 -195 646 -400 1058 -62 123 -109 224 -106 226 3
2 56 19 116 36 396 118 1018 390 1425 625 582 335 1206 831 1516 1204 54 64
105 123 116 133 17 16 18 148 18 4142 0 2778 -3 4126 -10 4126 -11 0 -275
-132 -360 -181 -702 -399 -1513 -946 -1949 -1313 -47 -39 -131 -110 -188 -158
-93 -78 -250 -214 -263 -228 -3 -3 -45 -41 -95 -85 -85 -75 -294 -264 -305
-276 -21 -23 -311 -279 -332 -293 -26 -17 -26 -17 -34 6 -4 13 -7 111 -5 218
12 968 -377 2519 -1053 4194 -210 521 -370 888 -534 1229 l-91 187 -2615 0
c-1439 0 -2616 -4 -2616 -8z m3980 -3649 c145 -104 668 -539 1015 -844 295
-258 894 -833 1083 -1039 58 -63 167 -180 242 -260 280 -297 606 -686 870
-1035 119 -158 354 -508 460 -685 377 -630 605 -1265 729 -2030 64 -392 76
-575 75 -1083 -2 -536 -10 -564 -74 -257 -116 550 -289 1064 -540 1600 -224
479 -459 924 -785 1485 -446 768 -1143 1791 -1699 2495 -290 366 -709 860
-1115 1313 -256 286 -343 387 -333 387 4 0 37 -21 72 -47z"/>
<path d="M28640 20477 c0 -15 -35 -260 -60 -417 -17 -107 -35 -224 -40 -260
-65 -445 -230 -1235 -385 -1844 -132 -521 -369 -1359 -500 -1766 -36 -113
-103 -329 -150 -481 -46 -152 -110 -357 -141 -455 -81 -253 -156 -504 -161
-539 l-4 -30 23 27 c13 15 31 42 40 60 81 153 159 301 238 453 51 99 123 234
160 300 37 66 84 152 105 190 157 288 396 690 664 1118 308 491 689 1038 1090
1567 398 526 857 1098 1167 1454 l34 39 0 294 0 293 -1040 0 c-572 0 -1040 -1
-1040 -3z"/>
<path d="M22935 2312 c-58 -38 -202 -147 -610 -463 -110 -85 -279 -214 -375
-287 -255 -193 -565 -431 -1045 -802 -88 -68 -245 -189 -350 -269 -104 -80
-248 -191 -320 -248 -71 -57 -167 -129 -213 -160 -46 -30 -81 -60 -79 -67 3
-8 294 -12 1090 -14 991 -2 1087 -1 1087 14 0 9 8 28 18 42 54 78 411 931 528
1262 25 69 61 170 81 225 65 181 254 778 251 792 -2 10 -20 3 -63 -25z"/>
<path d="M11150 2235 c-80 -20 -324 -59 -660 -105 -768 -106 -1048 -163 -1335
-273 -375 -145 -719 -376 -1055 -708 -140 -139 -315 -341 -399 -462 -119 -169
-371 -628 -371 -674 0 -10 119 -13 610 -13 l609 0 43 40 c62 57 355 318 404
360 23 19 203 179 401 355 640 570 911 807 1059 925 17 14 120 97 230 186 234
188 361 282 464 341 82 47 82 48 0 28z"/>
</g>
</svg>
